<?xml version="1.0" encoding="UTF-8"?>
<svg xmlns="http://www.w3.org/2000/svg" width="128" height="26" viewBox="0 0 128 26" fill="none">
  <g clip-path="url(#clip0_5_2139)">
    <path d="M46.3672 3.87466C46.3703 3.97451 46.3656 4.85444 46.3861 10.5865C46.4145 18.5916 46.4602 21.1862 46.6825 21.779C47.3603 23.5904 48.5332 24.4532 49.6446 25.0039C51.0145 25.6997 52.2977 25.915 55.315 25.8417L58.0675 25.8479L58.0612 23.3751L58.0549 20.9943L55.769 20.9022C53.789 20.8289 53.3807 20.7556 52.8999 20.4077C51.9005 19.7118 51.9194 19.5293 51.9746 14.6569V10.1855L54.5142 10.1917L57.0995 10.1855L57.1058 7.66117L57.0995 5.14775L54.4779 5.16335L51.9809 5.15399L51.9746 2.50952L51.9777 0.00390625" fill="#080808"></path>
    <path d="M20.4087 12.304C18.8448 7.47059 13.3825 3.97115 8.01791 5.36438C0.0569273 7.18976 -2.74597 17.5492 3.15619 22.9364C8.21024 28.4064 18.4066 25.7603 20.3771 19.2498C20.0209 19.2123 16.0262 19.2514 14.9873 19.2514C11.6342 23.1159 4.57183 20.8131 4.80672 15.5117C4.7342 12.4319 7.15403 9.72814 10.4929 9.88416C12.8371 9.78119 14.1061 10.7766 15.5548 12.3352" fill="#080808"></path>
    <path d="M35.5818 5.10703H32.4163C30.028 5.08831 29.0853 5.171 28.0685 5.42686C25.8662 5.97604 24.2189 7.23977 23.3849 9.05423C23.1075 9.67674 22.9388 10.6097 22.953 17.7537L22.9593 25.7791H28.5304V18.8005C28.5304 11.9499 28.5304 11.822 28.9198 11.2712C29.5677 10.3913 30.244 10.0917 33.0563 10.0917H35.5818" fill="#080808"></path>
    <path d="M96.1927 5.14453L93.0272 5.15545C90.639 5.13673 89.6963 5.22722 88.6779 5.48309C86.4756 6.03226 84.8282 7.29599 83.9943 9.11046C83.7168 9.73296 83.5482 10.6659 83.5624 17.8099L83.5687 25.8354H89.1398V18.8568C89.1398 12.0061 89.1398 11.8782 89.5291 11.3274C90.1771 10.4475 90.8533 10.148 93.6673 10.148H96.1927" fill="#080808"></path>
    <path d="M43.6561 21.9459V15.4838V5.11182L40.6798 5.11806H38.1748V15.49V25.8401" fill="#080808"></path>
    <path d="M104.348 21.9459V15.4838V5.11182L101.372 5.11806H98.8672V15.49V25.8401" fill="#080808"></path>
    <path d="M66.1129 5.95917C60.3542 8.42266 58.1661 15.6571 61.5649 20.9071C62.5013 22.3533 63.6395 23.3861 64.9858 24.1725C64.9842 24.1818 65.0063 24.1865 65.0047 24.1959C68.2285 26.3676 72.4833 26.8559 76.366 23.9275C76.3834 23.901 76.4149 23.8854 76.4307 23.8604C78.1001 22.7122 79.3124 21.1099 80.1636 19.2392H74.6461C74.5563 19.2392 73.6467 20.1239 73.2321 20.3454C69.5401 22.3112 65.6983 20.464 64.9353 16.1813L80.8872 16.1954C81.3712 8.34153 73.4953 2.79985 66.1129 5.95917ZM65.5123 12.6148C67.2211 8.73937 73.6041 8.76277 75.2799 12.6148H65.5123Z" fill="#080808"></path>
    <path d="M117.403 9.75959C120.613 9.75959 123.214 12.3339 123.214 15.5103C123.214 18.6868 120.613 21.2611 117.403 21.2611C114.194 21.2611 111.593 18.6868 111.593 15.5103C111.593 12.3339 114.195 9.75959 117.403 9.75959ZM117.403 5.02295C111.56 5.02295 106.807 9.72839 106.807 15.5103C106.807 21.2923 111.561 25.9977 117.403 25.9977C123.246 25.9977 128 21.2923 128 15.5103C128 9.72839 123.246 5.02295 117.403 5.02295Z" fill="#080808"></path>
  </g>
  <defs>
    <clipPath id="clip0_5_2139">
      <rect width="128" height="26" fill="white"></rect>
    </clipPath>
  </defs>
</svg>
